<?xml version="1.0" encoding="utf-8"?>
<!-- Generator: Adobe Illustrator 14.0.0, SVG Export Plug-In . SVG Version: 6.00 Build 43363)  -->
<!DOCTYPE svg PUBLIC "-//W3C//DTD SVG 1.1//EN" "http://www.w3.org/Graphics/SVG/1.1/DTD/svg11.dtd">
<svg version="1.1" id="Layer_1" xmlns="http://www.w3.org/2000/svg" xmlns:xlink="http://www.w3.org/1999/xlink" x="0px" y="0px"
	 width="395.98px" height="212.989px" viewBox="0 0 395.98 212.989" enable-background="new 0 0 395.98 212.989"
	 xml:space="preserve">
<path d="M150.666,74.792c-6.625-9.138-12.981-15.823-19.07-20.063c-6.092-4.237-12.187-6.356-18.275-6.356
	c-7.022,0-13.541,1.49-19.567,4.47c-6.028,2.979-11.323,7.021-15.892,12.117c-4.568,5.099-8.145,11.058-10.727,17.878
	c-2.583,6.823-3.874,14.005-3.874,21.554v94.932H17.175V13.808h46.881v20.659c3.046-3.443,6.486-6.685,10.33-9.734
	c3.84-3.046,7.946-5.692,12.316-7.946c4.371-2.251,8.97-4.003,13.806-5.264c4.834-1.258,9.764-1.887,14.799-1.887
	c10.727,0,20.957,1.688,30.691,5.065s19.026,13.66,25.923,21.443c22.301,25.167,80.082,102.413,80.082,102.413
	c6.627,9.138,12.984,15.82,19.07,20.063c6.092,4.238,12.189,6.356,18.275,6.356c7.024,0,13.541-1.489,19.567-4.47
	c6.03-2.979,11.322-7.023,15.892-12.117c4.568-5.099,8.145-11.058,10.727-17.878c2.583-6.826,3.874-14.005,3.874-21.554V13.808
	h46.086v185.735h-46.881v-20.66c-3.046,3.443-6.483,6.683-10.329,9.734c-3.841,3.045-7.946,5.688-12.316,7.945
	c-4.37,2.252-8.967,4.001-13.807,5.265c-4.833,1.258-9.761,1.887-14.799,1.887c-10.727,0-20.957-1.688-30.69-5.065
	c-9.734-3.377-19.026-13.657-25.924-21.443C208.444,152.038,150.666,74.792,150.666,74.792z"/>
<polygon points="196.57,147.16 164.552,199.322 112.799,199.322 171.11,113.633 "/>
<polygon points="205.763,66.3 237.541,13.808 286.806,13.808 230.787,99.027 "/>
</svg>
