<svg xmlns="http://www.w3.org/2000/svg" width="475.085" height="475.079" viewBox="0 0.003 475.085 475.079"><path fill="#DDDDDD" d="M464.524 412.846l-97.93-97.925C390.195 280.853 402 242.874 402 201.004c0-27.218-5.284-53.249-15.852-78.087-10.562-24.842-24.839-46.254-42.825-64.241-17.987-17.987-39.396-32.264-64.233-42.826C254.246 5.285 228.217.003 200.999.003c-27.216 0-53.247 5.282-78.085 15.847C98.072 26.412 76.66 40.689 58.673 58.676c-17.988 17.987-32.264 39.403-42.826 64.241C5.282 147.758 0 173.786 0 201.004c0 27.216 5.282 53.238 15.847 78.083 10.562 24.838 24.838 46.247 42.826 64.234 17.987 17.992 39.403 32.264 64.241 42.832 24.841 10.562 50.869 15.844 78.085 15.844 41.879 0 79.853-11.807 113.922-35.405l97.929 97.642c6.853 7.23 15.406 10.849 25.693 10.849 9.897 0 18.467-3.617 25.694-10.849 7.229-7.23 10.848-15.796 10.848-25.693.003-10.083-3.518-18.652-10.561-25.695zM291.363 291.358c-25.029 25.033-55.148 37.549-90.364 37.549-35.21 0-65.329-12.52-90.359-37.549-25.031-25.029-37.547-55.145-37.547-90.36 0-35.21 12.519-65.334 37.547-90.36 25.025-25.032 55.149-37.546 90.359-37.546 35.212 0 65.331 12.519 90.364 37.546 25.033 25.026 37.548 55.15 37.548 90.36 0 35.216-12.52 65.331-37.548 90.36z"/></svg>
